<svg width="211" height="48" viewBox="0 0 211 48" fill="none" xmlns="http://www.w3.org/2000/svg">
<path d="M3.36727 22.768C4.62268 22.768 5.77702 22.7147 6.83029 22.6082C7.88356 22.5017 8.80384 22.3792 9.59113 22.2407C10.5061 22.0915 11.3413 21.9157 12.0966 21.7133L11.6338 24.3021C11.5062 24.2914 11.3147 24.2808 11.0593 24.2701C10.804 24.2595 10.5167 24.2488 10.1976 24.2382C9.88903 24.2275 9.55922 24.2169 9.20813 24.2062C8.86768 24.2062 8.54318 24.2009 8.23465 24.1902C7.92612 24.1902 7.6495 24.1849 7.4048 24.1742C7.17074 24.1742 7.00052 24.1742 6.89413 24.1742H0V24.1103C0.0638345 23.8866 0.122349 23.6096 0.175545 23.2794C0.239379 22.9491 0.292575 22.539 0.335131 22.0489C0.377687 21.5589 0.409605 20.9783 0.430883 20.3071C0.452161 19.6253 0.4628 18.8316 0.4628 17.9261V7.52311C0.4628 6.61758 0.452161 5.82923 0.430883 5.15807C0.409605 4.47626 0.377687 3.89033 0.335131 3.40028C0.292575 2.89957 0.239379 2.48409 0.175545 2.15384C0.122349 1.82358 0.0638345 1.5466 0 1.32288V1.25896H3.83007V1.32288C3.76624 1.5466 3.7024 1.82358 3.63857 2.15384C3.58537 2.48409 3.5375 2.89957 3.49494 3.40028C3.46302 3.89033 3.4311 4.47626 3.39919 5.15807C3.37791 5.82923 3.36727 6.61758 3.36727 7.52311V22.768Z" fill="#4D3F38"/>
<path d="M21.3775 24.4619C20.1966 24.4619 19.0901 24.2755 18.0581 23.9026C17.0261 23.5297 16.1271 22.9864 15.3611 22.2726C14.5951 21.5482 13.9887 20.6587 13.5419 19.604C13.1056 18.5386 12.8875 17.3242 12.8875 15.9605C12.8875 14.7567 13.0897 13.6434 13.494 12.6207C13.8983 11.5874 14.4568 10.6925 15.1696 9.93609C15.8824 9.1797 16.7123 8.58844 17.6592 8.16231C18.6167 7.73618 19.6487 7.52311 20.7551 7.52311C21.851 7.52311 22.867 7.71487 23.8032 8.09839C24.7395 8.47126 25.5481 9.0199 26.229 9.74433C26.9205 10.4581 27.4631 11.3477 27.8567 12.413C28.261 13.4677 28.4791 14.6715 28.511 16.0245C27.3088 16.0032 26.1066 15.9872 24.9044 15.9765C23.7022 15.9659 22.4521 15.9605 21.1541 15.9605C20.2285 15.9605 19.3242 15.9659 18.4411 15.9765C17.5687 15.9872 16.7815 16.0032 16.0793 16.0245C16.1431 17.1324 16.3133 18.1338 16.5899 19.0287C16.8772 19.9236 17.2655 20.6906 17.7549 21.3298C18.255 21.9584 18.8561 22.4431 19.5583 22.784C20.2711 23.1249 21.0743 23.2954 21.968 23.2954C22.5851 23.2954 23.1649 23.2261 23.7075 23.0876C24.2607 22.9385 24.7608 22.7361 25.2076 22.4804C25.6544 22.2247 26.0534 21.9264 26.4045 21.5855C26.7556 21.2339 27.0535 20.8557 27.2982 20.4509L27.4897 20.5468L26.3087 23.3912C25.7342 23.6895 25.048 23.9452 24.2501 24.1583C23.4522 24.3607 22.4946 24.4619 21.3775 24.4619ZM19.255 14.7141C20.3189 14.7141 21.3829 14.7141 22.4468 14.7141C23.5213 14.7034 24.4948 14.6821 25.3672 14.6502C25.2714 13.7233 25.0906 12.8924 24.8246 12.1573C24.5586 11.4222 24.2182 10.799 23.8032 10.2876C23.3883 9.77629 22.8989 9.38211 22.3351 9.10513C21.7712 8.82814 21.1488 8.68965 20.4679 8.68965C19.8508 8.68965 19.2816 8.82814 18.7603 9.10513C18.2496 9.37146 17.8028 9.76031 17.4198 10.2717C17.0368 10.783 16.7283 11.4116 16.4942 12.1573C16.2601 12.8924 16.1218 13.734 16.0793 14.6821C16.558 14.7034 17.0634 14.7141 17.5953 14.7141C18.1273 14.7141 18.6805 14.7141 19.255 14.7141Z" fill="#4D3F38"/>
<path d="M36.0844 23.9825L30.4669 11.6779C30.2648 11.2092 30.0467 10.7617 29.8126 10.3356C29.5786 9.8988 29.3551 9.50995 29.1424 9.16905C28.9402 8.82814 28.7594 8.54583 28.5998 8.32211C28.4402 8.08774 28.3338 7.93859 28.2806 7.87467V7.81075H32.4618V7.87467C32.4405 7.92794 32.4245 8.00784 32.4139 8.11437C32.4032 8.2209 32.3979 8.31678 32.3979 8.40201C32.3979 8.73226 32.4458 9.0998 32.5415 9.50463C32.6479 9.8988 32.8394 10.3942 33.1161 10.9908L37.5206 20.5788L41.5422 11.1186C41.7124 10.7244 41.8827 10.293 42.0529 9.82423C42.2338 9.35548 42.3242 8.88141 42.3242 8.40201C42.3242 8.26352 42.3135 8.15166 42.2923 8.06643C42.271 7.97055 42.2497 7.90663 42.2284 7.87467V7.81075H45.101V7.87467C44.9095 8.07708 44.6648 8.4393 44.3669 8.96131C44.0796 9.47267 43.7711 10.1172 43.4413 10.8949L35.829 29.0481C35.6588 29.4423 35.4833 29.8738 35.3024 30.3425C35.1322 30.8113 35.0471 31.2853 35.0471 31.7647C35.0471 31.9032 35.0577 32.0151 35.079 32.1003C35.1003 32.1962 35.1215 32.2601 35.1428 32.2921V32.356H32.1585V32.2921C32.3607 32.0897 32.6054 31.7328 32.8926 31.2214C33.1905 30.7207 33.5044 30.0868 33.8342 29.3198L36.0844 23.9825Z" fill="#4D3F38"/>
<path d="M46.4505 6.53235C46.4505 5.62682 46.4345 4.83847 46.4026 4.16731C46.3813 3.4855 46.3494 2.89957 46.3068 2.40952C46.2749 1.91946 46.227 1.50931 46.1632 1.17906C46.11 0.848806 46.0515 0.571819 45.9877 0.3481V0.28418H49.6741V0.3481C49.6103 0.571819 49.5517 0.848806 49.4985 1.17906C49.4454 1.50931 49.3975 1.91946 49.3549 2.40952C49.3124 2.89957 49.2804 3.4855 49.2592 4.16731C49.2379 4.83847 49.2273 5.62682 49.2273 6.53235V17.9261C49.2273 18.8316 49.2379 19.6253 49.2592 20.3071C49.2804 20.9783 49.3124 21.5589 49.3549 22.0489C49.3975 22.539 49.4454 22.9491 49.4985 23.2794C49.5517 23.6096 49.6103 23.8866 49.6741 24.1103V24.1742H45.9877V24.1103C46.0515 23.8866 46.11 23.6096 46.1632 23.2794C46.227 22.9491 46.2749 22.539 46.3068 22.0489C46.3494 21.5589 46.3813 20.9783 46.4026 20.3071C46.4345 19.6253 46.4505 18.8316 46.4505 17.9261V6.53235Z" fill="#4D3F38"/>
<path d="M51.9811 19.4602C51.9811 18.6185 52.1513 17.8888 52.4917 17.2709C52.8428 16.653 53.3056 16.1257 53.8801 15.6889C54.4547 15.2521 55.109 14.9005 55.8431 14.6342C56.5772 14.3572 57.3378 14.1441 58.1251 13.995C58.9124 13.8352 59.6891 13.7287 60.4551 13.6754C61.2211 13.6115 61.9233 13.5742 62.5616 13.5635V12.7486C62.5616 12.0454 62.4712 11.4382 62.2903 10.9268C62.1095 10.4155 61.8541 9.99468 61.5243 9.66443C61.1945 9.32352 60.7956 9.07317 60.3274 8.91337C59.8699 8.74292 59.3646 8.65769 58.8114 8.65769C58.4284 8.65769 58.0507 8.68965 57.6783 8.75357C57.3059 8.81749 56.9176 8.92402 56.5133 9.07317C56.1197 9.22231 55.6994 9.42473 55.2526 9.68041C54.8164 9.93609 54.3429 10.261 53.8323 10.6552L53.6727 10.5593L54.7579 8.30613C55.109 8.14633 55.4547 8.01849 55.7952 7.92261C56.1356 7.81608 56.4814 7.73085 56.8325 7.66693C57.1836 7.60301 57.54 7.5604 57.9017 7.53909C58.2741 7.50713 58.6624 7.49115 59.0667 7.49115C60.1838 7.49115 61.136 7.62964 61.9233 7.90663C62.7212 8.17296 63.3702 8.54583 63.8702 9.02523C64.3809 9.49397 64.7533 10.0479 64.9874 10.6871C65.2214 11.3157 65.3384 11.9922 65.3384 12.7166V17.9261C65.3384 18.8316 65.3491 19.6253 65.3704 20.3071C65.4023 20.9783 65.4342 21.5589 65.4661 22.0489C65.5087 22.539 65.5565 22.9491 65.6097 23.2794C65.6736 23.6096 65.7374 23.8866 65.8012 24.1103V24.1742H62.2744V24.1103C62.3276 23.9399 62.3648 23.7481 62.3861 23.535C62.418 23.322 62.4446 23.0663 62.4659 22.768C62.2425 22.9598 61.9765 23.1569 61.668 23.3593C61.3701 23.5617 61.0243 23.7481 60.6306 23.9186C60.2476 24.0784 59.8168 24.2062 59.338 24.3021C58.8699 24.4086 58.3539 24.4619 57.79 24.4619C55.9388 24.4619 54.5079 24.0304 53.4971 23.1675C52.4864 22.2939 51.9811 21.0582 51.9811 19.4602ZM62.5616 14.81C61.5935 14.8206 60.6626 14.8792 59.7689 14.9858C58.8752 15.0816 58.0826 15.2894 57.391 15.609C56.7101 15.9286 56.1622 16.3867 55.7473 16.9833C55.343 17.5692 55.1409 18.3522 55.1409 19.3323C55.1409 20.5894 55.4547 21.5482 56.0824 22.2087C56.7101 22.8692 57.5772 23.1995 58.6837 23.1995C59.1944 23.1995 59.6572 23.1302 60.0721 22.9917C60.4977 22.8426 60.87 22.6615 61.1892 22.4484C61.519 22.2247 61.7956 21.985 62.019 21.7293C62.2425 21.463 62.4127 21.2073 62.5297 20.9623C62.551 20.5574 62.5616 20.11 62.5616 19.62C62.5616 19.1192 62.5616 18.5546 62.5616 17.9261V14.81Z" fill="#4D3F38"/>
<path d="M81.2032 17.9261C81.2032 18.8316 81.2139 19.6253 81.2351 20.3071C81.2671 20.9783 81.299 21.5589 81.3309 22.0489C81.3735 22.539 81.4213 22.9491 81.4745 23.2794C81.5384 23.6096 81.6022 23.8866 81.666 24.1103V24.1742H77.836V24.1103C77.8998 23.8866 77.9583 23.6096 78.0115 23.2794C78.0753 22.9491 78.1232 22.539 78.1551 22.0489C78.1977 21.5589 78.2296 20.9783 78.2509 20.3071C78.2828 19.6359 78.2988 18.8423 78.2988 17.9261V7.52311C78.2988 6.61758 78.2828 5.82923 78.2509 5.15807C78.2296 4.47626 78.1977 3.89033 78.1551 3.40028C78.1232 2.91022 78.0753 2.50007 78.0115 2.16982C77.9583 1.82891 77.8998 1.5466 77.836 1.32288V1.25896L78.5062 1.32288C78.7084 1.34418 78.9318 1.36016 79.1765 1.37082C79.4318 1.37082 79.6925 1.37082 79.9585 1.37082C80.3734 1.37082 80.9319 1.32288 81.6341 1.227C82.3469 1.12047 83.2513 1.0672 84.3471 1.0672C85.3684 1.0672 86.31 1.20569 87.1718 1.48268C88.0442 1.75966 88.7995 2.16449 89.4379 2.69716C90.0762 3.22982 90.5709 3.885 90.922 4.66269C91.2838 5.42973 91.4646 6.30331 91.4646 7.28341C91.4646 8.05045 91.3636 8.76422 91.1614 9.42473C90.9699 10.0746 90.6933 10.6658 90.3316 11.1985C89.9805 11.7312 89.5549 12.2052 89.0549 12.6207C88.5548 13.0255 87.9963 13.3665 87.3792 13.6434L92.9807 21.5216C93.2573 21.9157 93.5126 22.2567 93.7467 22.5443C93.9914 22.8319 94.2201 23.0823 94.4329 23.2954C94.6563 23.4978 94.8691 23.6682 95.0713 23.8067C95.2734 23.9345 95.4809 24.0358 95.6937 24.1103V24.1742H91.0816C91.0497 23.9718 90.9433 23.7055 90.7624 23.3752C90.5922 23.0343 90.3901 22.6988 90.156 22.3685L84.5067 14.3945C84.262 14.4158 84.0173 14.4371 83.7726 14.4584C83.5279 14.4691 83.2778 14.4744 83.0225 14.4744C82.7246 14.4744 82.4214 14.4637 82.1129 14.4424C81.815 14.4211 81.5118 14.3838 81.2032 14.3306V17.9261ZM81.2032 13.0841C81.4905 13.1481 81.7831 13.196 82.081 13.228C82.3788 13.2493 82.6661 13.2599 82.9427 13.2599C83.7407 13.2599 84.4694 13.1427 85.1291 12.9084C85.7887 12.6633 86.3472 12.2958 86.8047 11.8057C87.2728 11.3157 87.6346 10.7085 87.8899 9.98403C88.1452 9.24895 88.2729 8.39136 88.2729 7.41125C88.2729 6.61225 88.1825 5.88783 88.0016 5.23797C87.8207 4.58812 87.5494 4.03947 87.1877 3.59204C86.8366 3.13394 86.3898 2.78238 85.8472 2.53736C85.3046 2.28168 84.6716 2.15384 83.9481 2.15384C83.214 2.15384 82.6289 2.19112 82.1927 2.2657C81.7565 2.34027 81.4267 2.42017 81.2032 2.5054V13.0841Z" fill="#4D3F38"/>
<path d="M95.0004 15.9605C95.0004 14.7567 95.2238 13.6434 95.6707 12.6207C96.1175 11.5874 96.7293 10.6925 97.5059 9.93609C98.2932 9.1797 99.2188 8.58844 100.283 8.16231C101.347 7.73618 102.49 7.52311 103.714 7.52311C104.916 7.52311 106.044 7.72552 107.097 8.13035C108.161 8.52452 109.087 9.08915 109.874 9.82423C110.661 10.5593 111.278 11.4542 111.725 12.5089C112.183 13.5635 112.411 14.7461 112.411 16.0564C112.411 17.1537 112.22 18.2084 111.837 19.2205C111.454 20.2325 110.89 21.1274 110.145 21.9051C109.4 22.6828 108.485 23.306 107.4 23.7747C106.326 24.2328 105.086 24.4619 103.682 24.4619C102.49 24.4619 101.368 24.2648 100.315 23.8706C99.2614 23.4765 98.3411 22.9118 97.5538 22.1768C96.7665 21.4417 96.1441 20.5521 95.6866 19.5081C95.2292 18.4534 95.0004 17.2709 95.0004 15.9605ZM104.049 23.2954C104.804 23.2954 105.496 23.1462 106.124 22.8479C106.762 22.5496 107.31 22.1182 107.767 21.5535C108.225 20.9889 108.581 20.3018 108.837 19.4921C109.092 18.6825 109.22 17.7663 109.22 16.7436C109.22 15.593 109.097 14.5277 108.853 13.5476C108.608 12.5568 108.241 11.7045 107.751 10.9908C107.273 10.2663 106.666 9.70171 105.932 9.29689C105.198 8.89206 104.342 8.68965 103.363 8.68965C102.607 8.68965 101.916 8.8388 101.288 9.13709C100.66 9.42473 100.112 9.84553 99.6444 10.3995C99.1869 10.9535 98.8305 11.6353 98.5751 12.4449C98.3198 13.2439 98.1921 14.1548 98.1921 15.1775C98.1921 16.3281 98.3145 17.3987 98.5592 18.3895C98.8145 19.3803 99.1869 20.2432 99.6763 20.9783C100.166 21.7027 100.772 22.2726 101.496 22.6881C102.23 23.0929 103.081 23.2954 104.049 23.2954Z" fill="#4D3F38"/>
<path d="M116.649 22.9278H121.389C122.219 22.9278 122.985 22.8852 123.687 22.8C124.389 22.7041 124.996 22.5976 125.506 22.4804C126.102 22.3525 126.645 22.1981 127.134 22.017L126.416 24.3021C126.288 24.2914 126.065 24.2755 125.746 24.2541C125.437 24.2435 125.107 24.2275 124.756 24.2062C124.416 24.1956 124.091 24.1849 123.783 24.1742C123.474 24.1742 123.267 24.1742 123.16 24.1742H112.819V23.7747L123.128 9.05719H119.793C118.91 9.05719 118.096 9.10513 117.351 9.20101C116.617 9.29689 115.979 9.40342 115.436 9.52061C114.798 9.64845 114.224 9.79759 113.713 9.96805L114.75 7.68291C114.878 7.70422 115.096 7.7202 115.404 7.73085C115.724 7.7415 116.059 7.75748 116.41 7.77879C116.761 7.78944 117.085 7.8001 117.383 7.81075C117.692 7.81075 117.905 7.81075 118.022 7.81075H127.006V8.09839L116.649 22.9278Z" fill="#4D3F38"/>
<path d="M156.42 4.77455L156.276 4.83847C155.447 4.07143 154.447 3.45887 153.276 3.00078C152.117 2.54268 150.84 2.31364 149.446 2.31364C148.106 2.31364 146.877 2.5267 145.76 2.95284C144.643 3.36832 143.68 3.97555 142.871 4.77455C142.073 5.57355 141.451 6.55366 141.004 7.71487C140.557 8.87608 140.334 10.1971 140.334 11.6779C140.334 13.3079 140.547 14.8313 140.972 16.2482C141.398 17.6544 142.031 18.8742 142.871 19.9076C143.712 20.941 144.76 21.7559 146.015 22.3525C147.281 22.9385 148.755 23.2314 150.436 23.2314C151.042 23.2314 151.648 23.1675 152.255 23.0397C152.861 22.9118 153.441 22.7254 153.994 22.4804C154.558 22.2247 155.085 21.9211 155.574 21.5695C156.074 21.2073 156.526 20.7971 156.931 20.3391L157.106 20.4509L155.83 23.7108C155.032 24.0198 154.149 24.2541 153.18 24.4139C152.223 24.5844 151.255 24.6696 150.276 24.6696C148.308 24.6696 146.504 24.3873 144.866 23.8227C143.238 23.2474 141.834 22.4378 140.653 21.3937C139.483 20.3497 138.568 19.0979 137.908 17.6384C137.259 16.1683 136.935 14.5383 136.935 12.7486C136.935 11.7365 137.062 10.7404 137.318 9.76031C137.584 8.7802 137.967 7.84804 138.467 6.96381C138.967 6.07959 139.584 5.26993 140.318 4.53485C141.052 3.78912 141.887 3.1446 142.823 2.60128C143.77 2.05796 144.807 1.63715 145.935 1.33886C147.074 1.02991 148.302 0.875439 149.622 0.875439C151.675 0.875439 153.579 1.18971 155.335 1.81826L156.42 4.77455Z" fill="#4D3F38"/>
<path d="M159.318 6.53235C159.318 5.62682 159.302 4.83847 159.27 4.16731C159.248 3.4855 159.216 2.89957 159.174 2.40952C159.142 1.91946 159.094 1.50931 159.03 1.17906C158.977 0.848806 158.919 0.571819 158.855 0.3481V0.28418H162.541V0.3481C162.477 0.571819 162.419 0.848806 162.366 1.17906C162.312 1.50931 162.265 1.91946 162.222 2.40952C162.179 2.89957 162.148 3.4855 162.126 4.16731C162.105 4.83847 162.094 5.62682 162.094 6.53235V17.9261C162.094 18.8316 162.105 19.6253 162.126 20.3071C162.148 20.9783 162.179 21.5589 162.222 22.0489C162.265 22.539 162.312 22.9491 162.366 23.2794C162.419 23.6096 162.477 23.8866 162.541 24.1103V24.1742H158.855V24.1103C158.919 23.8866 158.977 23.6096 159.03 23.2794C159.094 22.9491 159.142 22.539 159.174 22.0489C159.216 21.5589 159.248 20.9783 159.27 20.3071C159.302 19.6253 159.318 18.8316 159.318 17.9261V6.53235Z" fill="#4D3F38"/>
<path d="M166.221 14.0589C166.221 13.1534 166.205 12.365 166.173 11.6939C166.151 11.0121 166.12 10.4261 166.077 9.93609C166.045 9.44603 165.997 9.03588 165.933 8.70563C165.88 8.37538 165.822 8.09839 165.758 7.87467V7.81075H169.444V7.87467C169.38 8.09839 169.322 8.37538 169.269 8.70563C169.215 9.03588 169.168 9.44603 169.125 9.93609C169.082 10.4261 169.051 11.0121 169.029 11.6939C169.008 12.365 168.997 13.1534 168.997 14.0589V17.9261C168.997 18.8316 169.008 19.6253 169.029 20.3071C169.051 20.9783 169.082 21.5589 169.125 22.0489C169.168 22.539 169.215 22.9491 169.269 23.2794C169.322 23.6096 169.38 23.8866 169.444 24.1103V24.1742H165.758V24.1103C165.822 23.8866 165.88 23.6096 165.933 23.2794C165.997 22.9491 166.045 22.539 166.077 22.0489C166.12 21.5589 166.151 20.9783 166.173 20.3071C166.205 19.6253 166.221 18.8316 166.221 17.9261V14.0589ZM165.885 2.96882C165.885 2.73444 165.928 2.51605 166.013 2.31364C166.109 2.10057 166.231 1.91946 166.38 1.77032C166.529 1.61052 166.705 1.488 166.907 1.40278C167.12 1.3069 167.348 1.25896 167.593 1.25896C167.838 1.25896 168.061 1.3069 168.263 1.40278C168.476 1.488 168.657 1.61052 168.806 1.77032C168.965 1.91946 169.088 2.10057 169.173 2.31364C169.269 2.51605 169.317 2.73444 169.317 2.96882C169.317 3.45887 169.152 3.86902 168.822 4.19927C168.492 4.52953 168.082 4.69465 167.593 4.69465C167.348 4.69465 167.12 4.65204 166.907 4.56681C166.705 4.47093 166.529 4.34842 166.38 4.19927C166.231 4.03947 166.109 3.85837 166.013 3.65596C165.928 3.44289 165.885 3.21384 165.885 2.96882Z" fill="#4D3F38"/>
<path d="M184.007 13.4037C184.007 11.9975 183.725 10.9641 183.162 10.3036C182.598 9.64312 181.842 9.31287 180.895 9.31287C180.555 9.31287 180.172 9.38744 179.746 9.53659C179.321 9.67508 178.885 9.86684 178.438 10.1119C177.991 10.3462 177.544 10.6232 177.097 10.9428C176.65 11.2624 176.23 11.6033 175.837 11.9655L175.805 14.0589V17.9261C175.805 18.8316 175.815 19.6253 175.837 20.3071C175.858 20.9783 175.89 21.5589 175.932 22.0489C175.975 22.539 176.023 22.9491 176.076 23.2794C176.129 23.6096 176.188 23.8866 176.252 24.1103V24.1742H172.565V24.1103C172.629 23.8866 172.687 23.6096 172.741 23.2794C172.804 22.9491 172.852 22.539 172.884 22.0489C172.927 21.5589 172.959 20.9783 172.98 20.3071C173.012 19.6253 173.028 18.8316 173.028 17.9261V14.0589C173.028 13.1534 173.012 12.365 172.98 11.6939C172.959 11.0121 172.927 10.4261 172.884 9.93609C172.852 9.44603 172.804 9.03588 172.741 8.70563C172.687 8.37538 172.629 8.09839 172.565 7.87467V7.81075H176.252V7.87467C176.166 8.141 176.097 8.48191 176.044 8.89739C176.001 9.30221 175.954 9.83488 175.9 10.4954C176.337 10.1332 176.805 9.77096 177.305 9.40875C177.815 9.04654 178.342 8.72694 178.885 8.44995C179.427 8.16231 179.981 7.93326 180.544 7.76281C181.108 7.5817 181.661 7.49115 182.204 7.49115C183.034 7.49115 183.736 7.63497 184.311 7.92261C184.896 8.21025 185.369 8.58844 185.731 9.05719C186.103 9.52593 186.369 10.0639 186.529 10.6712C186.699 11.2678 186.784 11.875 186.784 12.4929V17.9261C186.784 18.8316 186.795 19.6253 186.816 20.3071C186.837 20.9783 186.869 21.5589 186.912 22.0489C186.954 22.539 187.002 22.9491 187.055 23.2794C187.109 23.6096 187.167 23.8866 187.231 24.1103V24.1742H183.545V24.1103C183.608 23.8866 183.667 23.6096 183.72 23.2794C183.784 22.9491 183.832 22.539 183.864 22.0489C183.906 21.5589 183.938 20.9783 183.96 20.3071C183.991 19.6253 184.007 18.8316 184.007 17.9261V13.4037Z" fill="#4D3F38"/>
<path d="M190.719 14.0589C190.719 13.1534 190.703 12.365 190.671 11.6939C190.65 11.0121 190.618 10.4261 190.575 9.93609C190.543 9.44603 190.496 9.03588 190.432 8.70563C190.379 8.37538 190.32 8.09839 190.256 7.87467V7.81075H193.943V7.87467C193.879 8.09839 193.82 8.37538 193.767 8.70563C193.714 9.03588 193.666 9.44603 193.623 9.93609C193.581 10.4261 193.549 11.0121 193.528 11.6939C193.506 12.365 193.496 13.1534 193.496 14.0589V17.9261C193.496 18.8316 193.506 19.6253 193.528 20.3071C193.549 20.9783 193.581 21.5589 193.623 22.0489C193.666 22.539 193.714 22.9491 193.767 23.2794C193.82 23.6096 193.879 23.8866 193.943 24.1103V24.1742H190.256V24.1103C190.32 23.8866 190.379 23.6096 190.432 23.2794C190.496 22.9491 190.543 22.539 190.575 22.0489C190.618 21.5589 190.65 20.9783 190.671 20.3071C190.703 19.6253 190.719 18.8316 190.719 17.9261V14.0589ZM190.384 2.96882C190.384 2.73444 190.426 2.51605 190.512 2.31364C190.607 2.10057 190.73 1.91946 190.879 1.77032C191.027 1.61052 191.203 1.488 191.405 1.40278C191.618 1.3069 191.847 1.25896 192.091 1.25896C192.336 1.25896 192.56 1.3069 192.762 1.40278C192.974 1.488 193.155 1.61052 193.304 1.77032C193.464 1.91946 193.586 2.10057 193.671 2.31364C193.767 2.51605 193.815 2.73444 193.815 2.96882C193.815 3.45887 193.65 3.86902 193.32 4.19927C192.99 4.52953 192.581 4.69465 192.091 4.69465C191.847 4.69465 191.618 4.65204 191.405 4.56681C191.203 4.47093 191.027 4.34842 190.879 4.19927C190.73 4.03947 190.607 3.85837 190.512 3.65596C190.426 3.44289 190.384 3.21384 190.384 2.96882Z" fill="#4D3F38"/>
<path d="M210.788 20.7705L209.607 23.615C209.32 23.7428 208.99 23.86 208.618 23.9665C208.245 24.073 207.857 24.1636 207.453 24.2382C207.059 24.3127 206.66 24.366 206.256 24.398C205.851 24.4406 205.468 24.4619 205.107 24.4619C203.819 24.4619 202.628 24.2755 201.532 23.9026C200.447 23.5191 199.505 22.9651 198.707 22.2407C197.92 21.5162 197.303 20.6267 196.856 19.572C196.409 18.5173 196.186 17.3135 196.186 15.9605C196.186 14.7567 196.414 13.6434 196.872 12.6207C197.34 11.5874 197.984 10.6925 198.803 9.93609C199.633 9.1797 200.606 8.58844 201.723 8.16231C202.84 7.73618 204.053 7.52311 205.362 7.52311C205.958 7.52311 206.596 7.57638 207.277 7.68291C207.958 7.77879 208.564 7.90663 209.096 8.06643L210.229 10.783L210.038 10.8949C209.772 10.5646 209.453 10.2663 209.08 10C208.719 9.72302 208.314 9.48865 207.867 9.29689C207.431 9.10513 206.968 8.95598 206.479 8.84945C205.99 8.74292 205.49 8.68965 204.979 8.68965C204.149 8.68965 203.394 8.8388 202.713 9.13709C202.032 9.42473 201.447 9.84553 200.957 10.3995C200.468 10.9535 200.085 11.6353 199.808 12.4449C199.542 13.2439 199.409 14.1548 199.409 15.1775C199.409 16.3281 199.537 17.3987 199.792 18.3895C200.058 19.3803 200.447 20.2432 200.957 20.9783C201.479 21.7027 202.128 22.2726 202.904 22.6881C203.692 23.0929 204.612 23.2954 205.665 23.2954C206.155 23.2954 206.639 23.2368 207.117 23.1196C207.607 22.9917 208.064 22.816 208.49 22.5922C208.926 22.3579 209.325 22.0809 209.687 21.7613C210.048 21.4417 210.352 21.0795 210.596 20.6746L210.788 20.7705Z" fill="#4D3F38"/>
<path d="M37.7809 45.0005V37.4659H38.5683C38.7565 37.4659 38.8753 37.5576 38.9248 37.7411L39.0214 38.5146C39.2987 38.1725 39.6082 37.8923 39.9499 37.6741C40.2965 37.456 40.6976 37.3469 41.1532 37.3469C41.6633 37.3469 42.0743 37.4882 42.3863 37.7708C42.7032 38.0535 42.931 38.4353 43.0697 38.9163C43.1736 38.6436 43.3098 38.408 43.4782 38.2097C43.6515 38.0113 43.8446 37.8477 44.0576 37.7188C44.2705 37.5898 44.4958 37.4956 44.7335 37.4361C44.9762 37.3766 45.2213 37.3469 45.4689 37.3469C45.8651 37.3469 46.2167 37.4113 46.5237 37.5403C46.8357 37.6642 47.0981 37.8477 47.3111 38.0907C47.5289 38.3336 47.6948 38.6336 47.8087 38.9907C47.9226 39.3427 47.9796 39.7468 47.9796 40.203V45.0005H46.6574V40.203C46.6574 39.613 46.5286 39.1667 46.2711 38.8642C46.0136 38.5568 45.6398 38.4031 45.1495 38.4031C44.9316 38.4031 44.7236 38.4427 44.5256 38.5221C44.3324 38.5964 44.1616 38.708 44.013 38.8568C43.8645 39.0055 43.7456 39.194 43.6565 39.4221C43.5723 39.6452 43.5302 39.9055 43.5302 40.203V45.0005H42.208V40.203C42.208 39.5981 42.0867 39.1469 41.844 38.8493C41.6014 38.5518 41.2473 38.4031 40.7818 38.4031C40.455 38.4031 40.1504 38.4923 39.8682 38.6708C39.5909 38.8444 39.3358 39.0824 39.1031 39.3849V45.0005H37.7809Z" fill="#4D3F38"/>
<path d="M52.9606 37.3469C53.4113 37.3469 53.8272 37.4237 54.2085 37.5774C54.5899 37.7262 54.9192 37.9444 55.1965 38.232C55.4738 38.5146 55.6892 38.8667 55.8427 39.2882C56.0012 39.7047 56.0804 40.1807 56.0804 40.7163C56.0804 40.9245 56.0581 41.0634 56.0136 41.1328C55.969 41.2022 55.8848 41.2369 55.761 41.2369H50.7545C50.7644 41.7129 50.8288 42.127 50.9476 42.4791C51.0665 42.8311 51.2299 43.1262 51.4379 43.3642C51.6459 43.5972 51.8935 43.7733 52.1807 43.8923C52.4679 44.0063 52.7898 44.0633 53.1463 44.0633C53.4781 44.0633 53.7629 44.0261 54.0006 43.9518C54.2432 43.8724 54.4512 43.7881 54.6245 43.6989C54.7978 43.6096 54.9414 43.5278 55.0553 43.4534C55.1742 43.3741 55.2757 43.3344 55.3599 43.3344C55.4688 43.3344 55.553 43.3766 55.6124 43.4609L55.9838 43.9443C55.8204 44.1427 55.6248 44.3162 55.397 44.465C55.1692 44.6088 54.9241 44.7278 54.6617 44.822C54.4041 44.9162 54.1367 44.9856 53.8594 45.0303C53.5821 45.0799 53.3073 45.1047 53.0349 45.1047C52.515 45.1047 52.0346 45.0179 51.5939 44.8443C51.1581 44.6658 50.7793 44.408 50.4574 44.0708C50.1405 43.7286 49.8929 43.3071 49.7146 42.8063C49.5363 42.3055 49.4472 41.7303 49.4472 41.0807C49.4472 40.5551 49.5264 40.0642 49.6849 39.608C49.8483 39.1518 50.081 38.7576 50.3831 38.4254C50.6852 38.0882 51.0541 37.8254 51.4899 37.6369C51.9257 37.4436 52.4159 37.3469 52.9606 37.3469ZM52.9903 38.3212C52.3515 38.3212 51.8489 38.5072 51.4825 38.8791C51.116 39.246 50.8882 39.7568 50.7991 40.4113H54.8919C54.8919 40.1039 54.8498 39.8237 54.7656 39.5708C54.6815 39.313 54.5577 39.0923 54.3942 38.9088C54.2308 38.7204 54.0303 38.5766 53.7926 38.4774C53.5598 38.3733 53.2924 38.3212 52.9903 38.3212Z" fill="#4D3F38"/>
<path d="M63.0689 45.0005C62.8807 45.0005 62.7619 44.9088 62.7123 44.7253L62.5935 43.8104C62.2716 44.2022 61.9027 44.5171 61.4867 44.7551C61.0757 44.9881 60.6028 45.1047 60.068 45.1047C59.6371 45.1047 59.2459 45.0228 58.8943 44.8592C58.5428 44.6906 58.2432 44.4452 57.9956 44.1228C57.748 43.8005 57.5573 43.3989 57.4236 42.9179C57.2899 42.4369 57.223 41.884 57.223 41.2592C57.223 40.7039 57.2973 40.1882 57.4459 39.7121C57.5944 39.2311 57.8074 38.8146 58.0847 38.4626C58.367 38.1105 58.7086 37.8353 59.1098 37.6369C59.5109 37.4336 59.9665 37.332 60.4765 37.332C60.937 37.332 61.3307 37.4113 61.6576 37.57C61.9844 37.7237 62.2766 37.9419 62.5341 38.2245V34.0444H63.8563V45.0005H63.0689ZM60.5062 44.0336C60.937 44.0336 61.3134 43.9344 61.6353 43.7361C61.9621 43.5377 62.2617 43.2576 62.5341 42.8956V39.251C62.2914 38.9237 62.024 38.6956 61.7318 38.5667C61.4446 38.4328 61.1252 38.3659 60.7736 38.3659C60.0704 38.3659 59.5307 38.6163 59.1543 39.1171C58.778 39.6179 58.5898 40.332 58.5898 41.2592C58.5898 41.7501 58.6319 42.1716 58.7161 42.5237C58.8003 42.8708 58.9241 43.1584 59.0875 43.3865C59.2509 43.6096 59.4515 43.7733 59.6891 43.8774C59.9268 43.9815 60.1992 44.0336 60.5062 44.0336Z" fill="#4D3F38"/>
<path d="M67.5419 37.4659V45.0005H66.2198V37.4659H67.5419ZM67.8391 35.1006C67.8391 35.2295 67.8118 35.351 67.7574 35.4651C67.7078 35.5742 67.6385 35.6733 67.5494 35.7626C67.4652 35.8469 67.3661 35.9138 67.2523 35.9634C67.1384 36.013 67.017 36.0378 66.8883 36.0378C66.7595 36.0378 66.6382 36.013 66.5243 35.9634C66.4154 35.9138 66.3163 35.8469 66.2272 35.7626C66.143 35.6733 66.0761 35.5742 66.0266 35.4651C65.9771 35.351 65.9524 35.2295 65.9524 35.1006C65.9524 34.9717 65.9771 34.8502 66.0266 34.7361C66.0761 34.6171 66.143 34.5155 66.2272 34.4312C66.3163 34.3419 66.4154 34.2725 66.5243 34.2229C66.6382 34.1733 66.7595 34.1485 66.8883 34.1485C67.017 34.1485 67.1384 34.1733 67.2523 34.2229C67.3661 34.2725 67.4652 34.3419 67.5494 34.4312C67.6385 34.5155 67.7078 34.6171 67.7574 34.7361C67.8118 34.8502 67.8391 34.9717 67.8391 35.1006Z" fill="#4D3F38"/>
<path d="M75.005 38.8047C74.9654 38.8592 74.9258 38.9014 74.8862 38.9312C74.8465 38.9609 74.7896 38.9758 74.7153 38.9758C74.641 38.9758 74.5593 38.946 74.4702 38.8865C74.386 38.8221 74.2771 38.7526 74.1434 38.6783C74.0097 38.6039 73.8462 38.5369 73.6531 38.4774C73.4649 38.413 73.2322 38.3807 72.9549 38.3807C72.5884 38.3807 72.2641 38.4477 71.9818 38.5816C71.6995 38.7105 71.4619 38.8989 71.2687 39.1469C71.0805 39.3948 70.9369 39.6948 70.8379 40.0468C70.7438 40.3989 70.6968 40.7931 70.6968 41.2295C70.6968 41.6857 70.7488 42.0923 70.8528 42.4493C70.9567 42.8014 71.1028 43.0989 71.291 43.3419C71.4792 43.5799 71.707 43.7633 71.9744 43.8923C72.2467 44.0162 72.5513 44.0782 72.888 44.0782C73.2099 44.0782 73.4748 44.041 73.6828 43.9666C73.8908 43.8873 74.0641 43.8005 74.2028 43.7063C74.3414 43.6121 74.4553 43.5278 74.5445 43.4534C74.6336 43.3741 74.7227 43.3344 74.8119 43.3344C74.9258 43.3344 75.01 43.3766 75.0644 43.4609L75.4358 43.9443C75.109 44.346 74.7005 44.641 74.2102 44.8294C73.72 45.0129 73.2025 45.1047 72.6578 45.1047C72.1873 45.1047 71.7491 45.0179 71.343 44.8443C70.9419 44.6708 70.5928 44.4204 70.2957 44.0931C69.9985 43.7609 69.7633 43.3543 69.59 42.8733C69.4216 42.3923 69.3374 41.8443 69.3374 41.2295C69.3374 40.6692 69.4142 40.151 69.5677 39.6749C69.7262 39.1989 69.954 38.7898 70.2511 38.4477C70.5532 38.1006 70.9246 37.8303 71.3653 37.6369C71.806 37.4436 72.3111 37.3469 72.8806 37.3469C73.4055 37.3469 73.871 37.4336 74.2771 37.6072C74.6831 37.7758 75.0422 38.0163 75.3541 38.3287L75.005 38.8047Z" fill="#4D3F38"/>
<path d="M82.3334 45.0005H81.7466C81.6179 45.0005 81.5139 44.9807 81.4347 44.941C81.3554 44.9013 81.3034 44.8171 81.2787 44.6881L81.1301 43.989C80.932 44.1675 80.7389 44.3286 80.5507 44.4724C80.3625 44.6113 80.1645 44.7303 79.9565 44.8294C79.7485 44.9237 79.5257 44.9956 79.288 45.0451C79.0552 45.0947 78.7952 45.1195 78.508 45.1195C78.2159 45.1195 77.941 45.0799 77.6835 45.0005C77.431 44.9162 77.2106 44.7923 77.0224 44.6286C76.8342 44.465 76.6832 44.2592 76.5693 44.0113C76.4604 43.7584 76.4059 43.4609 76.4059 43.1187C76.4059 42.8212 76.4876 42.5361 76.651 42.2634C76.8144 41.9857 77.0769 41.7402 77.4384 41.527C77.8048 41.3138 78.2827 41.1402 78.872 41.0063C79.4613 40.8675 80.1818 40.7882 81.0335 40.7683V40.1807C81.0335 39.5956 80.9073 39.1543 80.6547 38.8568C80.4071 38.5543 80.0382 38.4031 79.5479 38.4031C79.2261 38.4031 78.9537 38.4452 78.7309 38.5295C78.513 38.6088 78.3223 38.7006 78.1589 38.8047C78.0004 38.9039 77.8618 38.9956 77.7429 39.0799C77.629 39.1592 77.5151 39.1989 77.4012 39.1989C77.3121 39.1989 77.2329 39.1766 77.1636 39.132C77.0992 39.0824 77.0472 39.0229 77.0076 38.9535L76.7699 38.5295C77.1858 38.1278 77.634 37.8279 78.1143 37.6295C78.5947 37.4312 79.127 37.332 79.7113 37.332C80.1323 37.332 80.5062 37.4014 80.833 37.5403C81.1598 37.6791 81.4347 37.8725 81.6575 38.1204C81.8803 38.3683 82.0487 38.6683 82.1626 39.0204C82.2765 39.3725 82.3334 39.7592 82.3334 40.1807V45.0005ZM78.9017 44.1898C79.1345 44.1898 79.3474 44.1675 79.5405 44.1228C79.7336 44.0733 79.9144 44.0063 80.0828 43.922C80.2561 43.8328 80.4195 43.7262 80.573 43.6022C80.7315 43.4782 80.885 43.3369 81.0335 43.1782V41.6088C80.4244 41.6287 79.907 41.6782 79.4811 41.7576C79.0552 41.832 78.7086 41.9311 78.4412 42.0551C78.1738 42.1791 77.9781 42.3253 77.8543 42.4939C77.7355 42.6625 77.6761 42.851 77.6761 43.0592C77.6761 43.2576 77.7083 43.4286 77.7726 43.5724C77.837 43.7162 77.9237 43.8352 78.0326 43.9295C78.1416 44.0187 78.2703 44.0857 78.4189 44.1303C78.5674 44.1699 78.7284 44.1898 78.9017 44.1898Z" fill="#4D3F38"/>
<path d="M85.8073 34.0444V45.0005H84.4851V34.0444H85.8073Z" fill="#4D3F38"/>
<path d="M96.1429 38.8047C96.1033 38.8592 96.0637 38.9014 96.0241 38.9312C95.9845 38.9609 95.9275 38.9758 95.8532 38.9758C95.779 38.9758 95.6973 38.946 95.6081 38.8865C95.5239 38.8221 95.415 38.7526 95.2813 38.6783C95.1476 38.6039 94.9842 38.5369 94.791 38.4774C94.6029 38.413 94.3701 38.3807 94.0928 38.3807C93.7264 38.3807 93.402 38.4477 93.1197 38.5816C92.8375 38.7105 92.5998 38.8989 92.4066 39.1469C92.2185 39.3948 92.0749 39.6948 91.9758 40.0468C91.8817 40.3989 91.8347 40.7931 91.8347 41.2295C91.8347 41.6857 91.8867 42.0923 91.9907 42.4493C92.0947 42.8014 92.2407 43.0989 92.4289 43.3419C92.6171 43.5799 92.8449 43.7633 93.1123 43.8923C93.3847 44.0162 93.6892 44.0782 94.0259 44.0782C94.3478 44.0782 94.6128 44.041 94.8208 43.9666C95.0287 43.8873 95.2021 43.8005 95.3407 43.7063C95.4794 43.6121 95.5933 43.5278 95.6824 43.4534C95.7715 43.3741 95.8607 43.3344 95.9498 43.3344C96.0637 43.3344 96.1479 43.3766 96.2024 43.4609L96.5738 43.9443C96.2469 44.346 95.8384 44.641 95.3481 44.8294C94.8579 45.0129 94.3404 45.1047 93.7957 45.1047C93.3252 45.1047 92.887 45.0179 92.4809 44.8443C92.0798 44.6708 91.7307 44.4204 91.4336 44.0931C91.1365 43.7609 90.9012 43.3543 90.7279 42.8733C90.5595 42.3923 90.4754 41.8443 90.4754 41.2295C90.4754 40.6692 90.5521 40.151 90.7056 39.6749C90.8641 39.1989 91.0919 38.7898 91.389 38.4477C91.6911 38.1006 92.0625 37.8303 92.5032 37.6369C92.9439 37.4436 93.449 37.3469 94.0185 37.3469C94.5434 37.3469 95.0089 37.4336 95.415 37.6072C95.8211 37.7758 96.1801 38.0163 96.4921 38.3287L96.1429 38.8047Z" fill="#4D3F38"/>
<path d="M100.99 37.3469C101.54 37.3469 102.035 37.4386 102.476 37.6221C102.922 37.8055 103.298 38.0659 103.605 38.4031C103.917 38.7402 104.155 39.1493 104.318 39.6303C104.487 40.1063 104.571 40.6394 104.571 41.2295C104.571 41.8245 104.487 42.3601 104.318 42.8361C104.155 43.3121 103.917 43.7187 103.605 44.0559C103.298 44.3931 102.922 44.6534 102.476 44.8369C102.035 45.0154 101.54 45.1047 100.99 45.1047C100.441 45.1047 99.9431 45.0154 99.4974 44.8369C99.0566 44.6534 98.6803 44.3931 98.3683 44.0559C98.0564 43.7187 97.8162 43.3121 97.6478 42.8361C97.4794 42.3601 97.3952 41.8245 97.3952 41.2295C97.3952 40.6394 97.4794 40.1063 97.6478 39.6303C97.8162 39.1493 98.0564 38.7402 98.3683 38.4031C98.6803 38.0659 99.0566 37.8055 99.4974 37.6221C99.9431 37.4386 100.441 37.3469 100.99 37.3469ZM100.99 44.0708C101.733 44.0708 102.288 43.8228 102.654 43.327C103.021 42.8262 103.204 42.1295 103.204 41.2369C103.204 40.3394 103.021 39.6402 102.654 39.1394C102.288 38.6386 101.733 38.3882 100.99 38.3882C100.614 38.3882 100.287 38.4526 100.01 38.5816C99.7326 38.7105 99.4999 38.8964 99.3117 39.1394C99.1285 39.3824 98.9898 39.6824 98.8957 40.0394C98.8066 40.3915 98.762 40.7906 98.762 41.2369C98.762 41.6832 98.8066 42.0824 98.8957 42.4344C98.9898 42.7865 99.1285 43.084 99.3117 43.327C99.4999 43.565 99.7326 43.7485 100.01 43.8774C100.287 44.0063 100.614 44.0708 100.99 44.0708Z" fill="#4D3F38"/>
<path d="M110.508 38.708C110.449 38.8171 110.357 38.8716 110.233 38.8716C110.159 38.8716 110.075 38.8444 109.981 38.7898C109.887 38.7353 109.77 38.6758 109.632 38.6113C109.498 38.5419 109.337 38.4799 109.149 38.4254C108.961 38.3659 108.738 38.3361 108.48 38.3361C108.257 38.3361 108.057 38.3659 107.879 38.4254C107.7 38.4799 107.547 38.5568 107.418 38.6559C107.294 38.7551 107.198 38.8716 107.128 39.0055C107.064 39.1345 107.032 39.2758 107.032 39.4295C107.032 39.6229 107.086 39.784 107.195 39.913C107.309 40.0419 107.458 40.1535 107.641 40.2477C107.824 40.3419 108.032 40.4262 108.265 40.5006C108.498 40.57 108.735 40.6468 108.978 40.7311C109.226 40.8105 109.466 40.8997 109.698 40.9989C109.931 41.0981 110.139 41.222 110.322 41.3708C110.506 41.5196 110.652 41.703 110.761 41.9212C110.875 42.1344 110.932 42.3923 110.932 42.6948C110.932 43.0419 110.87 43.3642 110.746 43.6617C110.622 43.9542 110.439 44.2096 110.196 44.4278C109.954 44.641 109.656 44.8096 109.305 44.9336C108.953 45.0575 108.547 45.1195 108.087 45.1195C107.562 45.1195 107.086 45.0352 106.66 44.8666C106.235 44.6931 105.873 44.4724 105.576 44.2047L105.888 43.6989C105.928 43.6344 105.975 43.5848 106.029 43.5501C106.084 43.5154 106.155 43.4981 106.244 43.4981C106.334 43.4981 106.428 43.5328 106.527 43.6022C106.626 43.6716 106.745 43.7485 106.883 43.8328C107.027 43.9171 107.198 43.9939 107.396 44.0633C107.599 44.1328 107.851 44.1675 108.153 44.1675C108.411 44.1675 108.636 44.1352 108.829 44.0708C109.023 44.0014 109.183 43.9096 109.312 43.7956C109.441 43.6815 109.535 43.5501 109.594 43.4014C109.659 43.2526 109.691 43.0939 109.691 42.9253C109.691 42.7171 109.634 42.546 109.52 42.4121C109.411 42.2733 109.265 42.1567 109.082 42.0625C108.899 41.9634 108.688 41.8791 108.451 41.8096C108.218 41.7353 107.978 41.6584 107.73 41.5791C107.487 41.4997 107.247 41.4105 107.01 41.3113C106.777 41.2072 106.569 41.0782 106.386 40.9245C106.202 40.7708 106.054 40.5824 105.94 40.3592C105.831 40.1311 105.776 39.8559 105.776 39.5336C105.776 39.246 105.836 38.9708 105.955 38.708C106.074 38.4402 106.247 38.2072 106.475 38.0088C106.703 37.8055 106.982 37.6444 107.314 37.5254C107.646 37.4064 108.025 37.3469 108.451 37.3469C108.946 37.3469 109.389 37.4262 109.78 37.5849C110.176 37.7386 110.518 37.9518 110.805 38.2245L110.508 38.708Z" fill="#4D3F38"/>
<path d="M112.641 45.0005V37.4659H113.429C113.617 37.4659 113.736 37.5576 113.785 37.7411L113.882 38.5146C114.159 38.1725 114.469 37.8923 114.81 37.6741C115.157 37.456 115.558 37.3469 116.014 37.3469C116.524 37.3469 116.935 37.4882 117.247 37.7708C117.564 38.0535 117.791 38.4353 117.93 38.9163C118.034 38.6436 118.17 38.408 118.339 38.2097C118.512 38.0113 118.705 37.8477 118.918 37.7188C119.131 37.5898 119.356 37.4956 119.594 37.4361C119.837 37.3766 120.082 37.3469 120.329 37.3469C120.726 37.3469 121.077 37.4113 121.384 37.5403C121.696 37.6642 121.959 37.8477 122.172 38.0907C122.389 38.3336 122.555 38.6336 122.669 38.9907C122.783 39.3427 122.84 39.7468 122.84 40.203V45.0005H121.518V40.203C121.518 39.613 121.389 39.1667 121.132 38.8642C120.874 38.5568 120.5 38.4031 120.01 38.4031C119.792 38.4031 119.584 38.4427 119.386 38.5221C119.193 38.5964 119.022 38.708 118.873 38.8568C118.725 39.0055 118.606 39.194 118.517 39.4221C118.433 39.6452 118.391 39.9055 118.391 40.203V45.0005H117.068V40.203C117.068 39.5981 116.947 39.1469 116.704 38.8493C116.462 38.5518 116.108 38.4031 115.642 38.4031C115.315 38.4031 115.011 38.4923 114.729 38.6708C114.451 38.8444 114.196 39.0824 113.964 39.3849V45.0005H112.641Z" fill="#4D3F38"/>
<path d="M127.821 37.3469C128.272 37.3469 128.688 37.4237 129.069 37.5774C129.45 37.7262 129.78 37.9444 130.057 38.232C130.334 38.5146 130.55 38.8667 130.703 39.2882C130.862 39.7047 130.941 40.1807 130.941 40.7163C130.941 40.9245 130.919 41.0634 130.874 41.1328C130.829 41.2022 130.745 41.2369 130.621 41.2369H125.615C125.625 41.7129 125.689 42.127 125.808 42.4791C125.927 42.8311 126.09 43.1262 126.298 43.3642C126.506 43.5972 126.754 43.7733 127.041 43.8923C127.328 44.0063 127.65 44.0633 128.007 44.0633C128.339 44.0633 128.623 44.0261 128.861 43.9518C129.104 43.8724 129.312 43.7881 129.485 43.6989C129.658 43.6096 129.802 43.5278 129.916 43.4534C130.035 43.3741 130.136 43.3344 130.22 43.3344C130.329 43.3344 130.413 43.3766 130.473 43.4609L130.844 43.9443C130.681 44.1427 130.485 44.3162 130.257 44.465C130.03 44.6088 129.785 44.7278 129.522 44.822C129.265 44.9162 128.997 44.9856 128.72 45.0303C128.443 45.0799 128.168 45.1047 127.895 45.1047C127.375 45.1047 126.895 45.0179 126.454 44.8443C126.019 44.6658 125.64 44.408 125.318 44.0708C125.001 43.7286 124.753 43.3071 124.575 42.8063C124.397 42.3055 124.308 41.7303 124.308 41.0807C124.308 40.5551 124.387 40.0642 124.545 39.608C124.709 39.1518 124.942 38.7576 125.244 38.4254C125.546 38.0882 125.915 37.8254 126.35 37.6369C126.786 37.4436 127.276 37.3469 127.821 37.3469ZM127.851 38.3212C127.212 38.3212 126.709 38.5072 126.343 38.8791C125.976 39.246 125.749 39.7568 125.66 40.4113H129.752C129.752 40.1039 129.71 39.8237 129.626 39.5708C129.542 39.313 129.418 39.0923 129.255 38.9088C129.091 38.7204 128.891 38.5766 128.653 38.4774C128.42 38.3733 128.153 38.3212 127.851 38.3212Z" fill="#4D3F38"/>
<path d="M134.914 45.1195C134.319 45.1195 133.861 44.9534 133.539 44.6212C133.222 44.289 133.064 43.8104 133.064 43.1857V38.5741H132.158C132.079 38.5741 132.012 38.5518 131.957 38.5072C131.903 38.4576 131.876 38.3832 131.876 38.284V37.756L133.109 37.5998L133.413 35.2717C133.423 35.1973 133.455 35.1378 133.51 35.0932C133.564 35.0436 133.633 35.0188 133.718 35.0188H134.386V37.6146H136.54V38.5741H134.386V43.0964C134.386 43.4138 134.463 43.6493 134.616 43.803C134.77 43.9567 134.968 44.0336 135.211 44.0336C135.349 44.0336 135.468 44.0162 135.567 43.9815C135.671 43.9419 135.76 43.8997 135.835 43.8551C135.909 43.8104 135.971 43.7708 136.02 43.7361C136.075 43.6964 136.122 43.6766 136.161 43.6766C136.231 43.6766 136.293 43.7187 136.347 43.803L136.733 44.4352C136.506 44.6485 136.231 44.8171 135.909 44.941C135.587 45.06 135.255 45.1195 134.914 45.1195Z" fill="#4D3F38"/>
<path d="M141.221 37.3469C141.77 37.3469 142.266 37.4386 142.706 37.6221C143.152 37.8055 143.528 38.0659 143.835 38.4031C144.147 38.7402 144.385 39.1493 144.548 39.6303C144.717 40.1063 144.801 40.6394 144.801 41.2295C144.801 41.8245 144.717 42.3601 144.548 42.8361C144.385 43.3121 144.147 43.7187 143.835 44.0559C143.528 44.3931 143.152 44.6534 142.706 44.8369C142.266 45.0154 141.77 45.1047 141.221 45.1047C140.671 45.1047 140.173 45.0154 139.728 44.8369C139.287 44.6534 138.911 44.3931 138.599 44.0559C138.287 43.7187 138.046 43.3121 137.878 42.8361C137.71 42.3601 137.625 41.8245 137.625 41.2295C137.625 40.6394 137.71 40.1063 137.878 39.6303C138.046 39.1493 138.287 38.7402 138.599 38.4031C138.911 38.0659 139.287 37.8055 139.728 37.6221C140.173 37.4386 140.671 37.3469 141.221 37.3469ZM141.221 44.0708C141.963 44.0708 142.518 43.8228 142.885 43.327C143.251 42.8262 143.434 42.1295 143.434 41.2369C143.434 40.3394 143.251 39.6402 142.885 39.1394C142.518 38.6386 141.963 38.3882 141.221 38.3882C140.844 38.3882 140.517 38.4526 140.24 38.5816C139.963 38.7105 139.73 38.8964 139.542 39.1394C139.359 39.3824 139.22 39.6824 139.126 40.0394C139.037 40.3915 138.992 40.7906 138.992 41.2369C138.992 41.6832 139.037 42.0824 139.126 42.4344C139.22 42.7865 139.359 43.084 139.542 43.327C139.73 43.565 139.963 43.7485 140.24 43.8774C140.517 44.0063 140.844 44.0708 141.221 44.0708Z" fill="#4D3F38"/>
<path d="M147.901 34.0444V45.0005H146.579V34.0444H147.901Z" fill="#4D3F38"/>
<path d="M153.277 37.3469C153.826 37.3469 154.322 37.4386 154.762 37.6221C155.208 37.8055 155.584 38.0659 155.891 38.4031C156.203 38.7402 156.441 39.1493 156.604 39.6303C156.773 40.1063 156.857 40.6394 156.857 41.2295C156.857 41.8245 156.773 42.3601 156.604 42.8361C156.441 43.3121 156.203 43.7187 155.891 44.0559C155.584 44.3931 155.208 44.6534 154.762 44.8369C154.322 45.0154 153.826 45.1047 153.277 45.1047C152.727 45.1047 152.229 45.0154 151.784 44.8369C151.343 44.6534 150.967 44.3931 150.655 44.0559C150.343 43.7187 150.102 43.3121 149.934 42.8361C149.766 42.3601 149.682 41.8245 149.682 41.2295C149.682 40.6394 149.766 40.1063 149.934 39.6303C150.102 39.1493 150.343 38.7402 150.655 38.4031C150.967 38.0659 151.343 37.8055 151.784 37.6221C152.229 37.4386 152.727 37.3469 153.277 37.3469ZM153.277 44.0708C154.019 44.0708 154.574 43.8228 154.941 43.327C155.307 42.8262 155.49 42.1295 155.49 41.2369C155.49 40.3394 155.307 39.6402 154.941 39.1394C154.574 38.6386 154.019 38.3882 153.277 38.3882C152.9 38.3882 152.573 38.4526 152.296 38.5816C152.019 38.7105 151.786 38.8964 151.598 39.1394C151.415 39.3824 151.276 39.6824 151.182 40.0394C151.093 40.3915 151.048 40.7906 151.048 41.2369C151.048 41.6832 151.093 42.0824 151.182 42.4344C151.276 42.7865 151.415 43.084 151.598 43.327C151.786 43.565 152.019 43.7485 152.296 43.8774C152.573 44.0063 152.9 44.0708 153.277 44.0708Z" fill="#4D3F38"/>
<path d="M161.019 37.3394C161.346 37.3394 161.65 37.3766 161.933 37.451C162.22 37.5204 162.48 37.6245 162.713 37.7634H164.755V38.2543C164.755 38.4179 164.651 38.5221 164.443 38.5667L163.589 38.6857C163.758 39.008 163.842 39.3675 163.842 39.7642C163.842 40.1311 163.77 40.4658 163.626 40.7683C163.488 41.0658 163.292 41.3212 163.04 41.5344C162.792 41.7477 162.495 41.9113 162.148 42.0253C161.806 42.1394 161.43 42.1964 161.019 42.1964C160.667 42.1964 160.336 42.1543 160.024 42.07C159.865 42.1691 159.744 42.2758 159.66 42.3898C159.581 42.5038 159.541 42.6154 159.541 42.7245C159.541 42.903 159.613 43.0394 159.756 43.1336C159.9 43.2229 160.091 43.2873 160.328 43.327C160.566 43.3666 160.836 43.3914 161.138 43.4014C161.44 43.4113 161.747 43.4286 162.059 43.4534C162.376 43.4733 162.685 43.5105 162.988 43.565C163.29 43.6195 163.559 43.7088 163.797 43.8328C164.035 43.9567 164.226 44.1278 164.369 44.346C164.513 44.5642 164.585 44.8468 164.585 45.1939C164.585 45.5162 164.503 45.8286 164.339 46.1311C164.181 46.4336 163.951 46.7013 163.649 46.9344C163.347 47.1724 162.978 47.3608 162.542 47.4997C162.106 47.6435 161.613 47.7154 161.064 47.7154C160.514 47.7154 160.031 47.6608 159.615 47.5517C159.204 47.4426 158.863 47.2964 158.59 47.1129C158.318 46.9294 158.112 46.7162 157.974 46.4732C157.84 46.2352 157.773 45.9848 157.773 45.722C157.773 45.3501 157.889 45.0352 158.122 44.7774C158.36 44.5146 158.684 44.3063 159.095 44.1526C158.882 44.0534 158.711 43.922 158.583 43.7584C158.459 43.5898 158.397 43.3666 158.397 43.089C158.397 42.9799 158.417 42.8683 158.456 42.7543C158.496 42.6353 158.555 42.5187 158.635 42.4047C158.719 42.2906 158.82 42.1815 158.939 42.0774C159.058 41.9733 159.197 41.8815 159.355 41.8022C158.984 41.5939 158.692 41.3187 158.479 40.9766C158.271 40.6295 158.167 40.2254 158.167 39.7642C158.167 39.3973 158.236 39.065 158.375 38.7675C158.518 38.465 158.716 38.2097 158.969 38.0014C159.222 37.7882 159.521 37.6245 159.868 37.5105C160.219 37.3965 160.603 37.3394 161.019 37.3394ZM163.366 45.4096C163.366 45.2212 163.314 45.0699 163.21 44.9559C163.106 44.8418 162.965 44.7551 162.787 44.6956C162.609 44.6311 162.403 44.584 162.17 44.5542C161.938 44.5245 161.693 44.5047 161.435 44.4947C161.178 44.4799 160.915 44.465 160.648 44.4501C160.38 44.4352 160.125 44.408 159.883 44.3683C159.6 44.5022 159.37 44.6658 159.192 44.8592C159.018 45.0526 158.932 45.2832 158.932 45.5509C158.932 45.7195 158.974 45.8757 159.058 46.0195C159.147 46.1683 159.281 46.2947 159.459 46.3989C159.637 46.5079 159.86 46.5922 160.128 46.6517C160.4 46.7162 160.72 46.7484 161.086 46.7484C161.443 46.7484 161.762 46.7162 162.044 46.6517C162.326 46.5873 162.564 46.4955 162.757 46.3765C162.955 46.2575 163.106 46.1162 163.21 45.9526C163.314 45.7889 163.366 45.608 163.366 45.4096ZM161.019 41.3187C161.286 41.3187 161.522 41.2815 161.725 41.2072C161.933 41.1328 162.106 41.0287 162.245 40.8948C162.383 40.7609 162.487 40.6022 162.557 40.4187C162.626 40.2303 162.661 40.0245 162.661 39.8014C162.661 39.3402 162.52 38.9733 162.237 38.7006C161.96 38.4278 161.554 38.2915 161.019 38.2915C160.489 38.2915 160.083 38.4278 159.801 38.7006C159.524 38.9733 159.385 39.3402 159.385 39.8014C159.385 40.0245 159.42 40.2303 159.489 40.4187C159.563 40.6022 159.67 40.7609 159.808 40.8948C159.947 41.0287 160.118 41.1328 160.321 41.2072C160.524 41.2815 160.757 41.3187 161.019 41.3187Z" fill="#4D3F38"/>
<path d="M168.28 47.2245C168.235 47.3236 168.178 47.403 168.109 47.4625C168.045 47.522 167.943 47.5517 167.804 47.5517H166.824L168.198 44.5617L165.093 37.4659H166.237C166.351 37.4659 166.44 37.4956 166.505 37.5551C166.569 37.6097 166.616 37.6717 166.646 37.7411L168.659 42.4865C168.703 42.5956 168.74 42.7047 168.77 42.8138C168.805 42.9229 168.835 43.0344 168.859 43.1485C168.894 43.0344 168.929 42.9229 168.963 42.8138C168.998 42.7047 169.038 42.5931 169.082 42.4791L171.036 37.7411C171.065 37.6617 171.115 37.5973 171.184 37.5477C171.258 37.4931 171.338 37.4659 171.422 37.4659H172.477L168.28 47.2245Z" fill="#4D3F38"/>
</svg>
